# AST/ASF file generated using VICON BodyLanguage
# -----------------------------------------------
:version 1.10
:name VICON
:units
  mass 1.0
  length 0.45
  angle deg
:documentation
   .ast/.asf automatically generated from VICON data using
   VICON BodyBuilder and BodyLanguage model FoxedUp or BRILLIANT.MOD
:root
   order TX TY TZ RX RY RZ
   axis XYZ
   position 0 0 0  
   orientation 0 0 0 
:bonedata
  begin
     id 1 
     name lhipjoint
     direction 0.596438 -0.722117 0.35044 
     length 2.43043 
     axis 0 0 0  XYZ
  end
  begin
     id 2 
     name lfemur
     direction 0.34202 -0.939693 0  
     length 7.0339  
     axis 0 0 20  XYZ
    dof rx ry rz
    limits (-160.0 20.0)
           (-70.0 70.0)
           (-60.0 70.0)
  end
  begin
     id 3 
     name ltibia
     direction 0.34202 -0.939693 0   
     length 7.56602   
     axis 0 0 20   XYZ
    dof rx
    limits (-10.0 170.0)
  end
  begin
     id 4 
     name lfoot
     direction 0.0985677 -0.270812 0.957572   
     length 1.85172   
     axis -90 7.62852e-016 20   XYZ
    dof rx rz
    limits (-45.0 90.0)
           (-70.0 20.0)
  end
  begin
     id 5 
     name ltoes
     direction 1.53534e-011 -4.21843e-011 1   
     length 0.929904   
     axis -90 7.62852e-016 20   XYZ
    dof rx
    limits (-90.0 20.0)
  end
  begin
     id 6 
     name rhipjoint
     direction -0.585088 -0.729594 0.354068   
     length 2.40552  
     axis 0 0 0  XYZ 
  end
  begin
     id 7 
     name rfemur
     direction -0.34202 -0.939693 0   
     length 7.12573   
     axis 0 0 -20   XYZ
    dof rx ry rz
    limits (-160.0 20.0)
           (-70.0 70.0)
           (-70.0 60.0)
  end
  begin
     id 8 
     name rtibia
     direction -0.34202 -0.939693 0   
     length 7.35777   
     axis 0 0 -20   XYZ
    dof rx
    limits (-10.0 170.0)
 end
 begin
     id 9 
     name rfoot
     direction -0.120907 -0.33219 0.935431   
     length 2.0994  
     axis -90 -7.62852e-016 -20   XYZ
    dof rx rz
    limits (-45.0 90.0)
           (-20.0 70.0)
  end
  begin
     id 10 
     name rtoes
     direction -1.53577e-011 -4.21787e-011 1   
     length 1.04244   
     axis -90 -7.62852e-016 -20   XYZ
    dof rx
    limits (-90.0 20.0)
  end
  begin
     id 11 
     name lowerback
     direction 0.00268363 0.993603 -0.112896   
     length 2.15839   
     axis 0 0 0   XYZ
    dof rx ry rz
    limits (-20.0 45.0)
           (-30.0 30.0)
           (-30.0 30.0)
  end
  begin
     id 12 
     name upperback
     direction 0.0272563 0.999411 -0.0208618   
     length 2.16443   
     axis 0 0 0   XYZ
    dof rx ry rz
    limits (-20.0 45.0)
           (-30.0 30.0)
           (-30.0 30.0)
  end
  begin
     id 13 
     name thorax
     direction 0.0254655 0.999174 0.0316806   
     length 2.19003   
     axis 0 0 0   XYZ
    dof rx ry rz
    limits (-20.0 45.0)
           (-30.0 30.0)
           (-30.0 30.0)
  end
  begin
     id 14 
     name lowerneck
     direction -0.0102178 0.988048 0.15381   
     length 1.61507   
     axis 0 0 0   XYZ
    dof rx ry rz
    limits (-20.0 45.0)
           (-30.0 30.0)
           (-30.0 30.0)
  end
  begin
     id 15 
     name upperneck
     direction -0.0061965 0.994088 -0.108398   
     length 1.64042   
     axis 0 0 0   XYZ
    dof rx ry rz
    limits (-20.0 45.0)
           (-30.0 30.0)
           (-30.0 30.0)
  end
  begin
     id 16
     name head
     direction -0.00151929 0.998591 -0.0530385  
     length 1.64343  
     axis 0 0 0   XYZ
    dof rx ry rz
    limits (-20.0 45.0)
           (-30.0 30.0)
           (-30.0 30.0)
  end
  begin
     id 17 
     name lclavicle
     direction 0.948974 0.284245 -0.136574  
     length 3.3483  
     axis 0 0 0   XYZ
    dof ry rz
    limits (-20.0 10.0)
           (0.0 20.0)
  end
  begin
     id 18 
     name lhumerus
     direction 1 -4.48961e-011 1.68576e-027   
     length 4.93485   
     axis -180 -30 -90   XYZ
    dof rx ry rz
    limits (-60.0 90.0)
           (-90.0 90.0)
           (-90.0 90.0)
  end
  begin
     id 19
     name lradius
     direction 1 -4.48965e-011 -2.46405e-027   
     length 3.41719   
     axis -180 -30 -90   XYZ
    dof rx
    limits (-10.0 170.0)
  end
  begin
     id 20
     name lwrist
     direction 1 -4.48968e-011 -8.00486e-028   
     length 1.7086   
     axis 3.27501e-015 90 90   XYZ
    dof ry
    limits (-180.0 0.0)
 end
  begin
     id 21 
     name lhand
     direction 1 -4.48977e-011 -1.60161e-027   
     length 0.6241   
     axis 1.02148e-015 90 90   XYZ
    dof rx rz
    limits (-90.0 90.0)
           (-45.0 45.0)
  end
  begin
     id 22 
     name lfingers
     direction 1 -4.49049e-011 -3.21275e-027   
     length 0.503166   
     axis 2.04295e-015 90 90   XYZ
    dof rx
    limits (0.0 90.0)
  end
  begin
     id 23
     name lthumb
     direction 0.707107 -6.34975e-011 0.707107   
     length 0.722448   
     axis -90 45 -1.62303e-014   XYZ
    dof rx rz
    limits (-45.0 45.0)
           (-45.0 45.0)
  end
  begin
     id 24 
     name rclavicle
     direction -0.904485 0.355099 -0.236246   
     length 3.18329  
     axis 0 0 0   XYZ 
    dof ry rz
    limits (-10.0 20.0)
           (-20.0 0.0)
  end
  begin
     id 25 
     name rhumerus
     direction -1 -4.48953e-011 1.32816e-027  
     length 5.22034   
     axis -180 30 90   XYZ
    dof rx ry rz
    limits (-90.0 60.0)
           (-90.0 90.0)
           (-90.0 90.0)
  end
  begin
     id 26 
     name rradius
     direction -1 -4.48965e-011 -3.93727e-027   
     length 3.41809   
     axis -180 30 90   XYZ
    dof rx
    limits (-10.0 170.0)
  end
  begin
     id 27 
     name rwrist
     direction -1 -4.48962e-011 -8.003e-028   
     length 1.70904   
     axis 3.27501e-015 -90 -90   XYZ
    dof ry
    limits (-180.0 0.0)
  end
  begin
     id 28
     name rhand
     direction -1 -4.49008e-011 -1.60365e-027   
     length 0.77534   
     axis 1.02148e-015 -90 -90   XYZ
    dof rx rz
    limits (-90.0 90.0)
           (-45.0 45.0)
  end
  begin
     id 29
     name rfingers
     direction -1 -4.49001e-011 -3.2064e-027   
     length 0.625099   
     axis 2.04295e-015 -90 -90   XYZ
    dof rx
    limits (0.0 90.0)
  end
  begin
     id 30
     name rthumb
     direction -0.707107 -6.34989e-011 0.707107   
     length 0.897521   
     axis -90 -45 1.62303e-014   XYZ
    dof rx rz
    limits (-45.0 45.0)
           (-45.0 45.0)
  end
:hierarchy
  begin
    root lhipjoint rhipjoint lowerback
    lhipjoint lfemur
    lfemur ltibia
    ltibia lfoot
    lfoot ltoes
    rhipjoint rfemur
    rfemur rtibia
    rtibia rfoot
    rfoot rtoes
    lowerback upperback
    upperback thorax
    thorax lowerneck lclavicle rclavicle
    lowerneck upperneck
    upperneck head
    lclavicle lhumerus
    lhumerus lradius
    lradius lwrist
    lwrist lhand lthumb
    lhand lfingers
    rclavicle rhumerus
    rhumerus rradius
    rradius rwrist
    rwrist rhand rthumb
    rhand rfingers
  end

#!OML:ASF \\sashay\E\Suitcase\Project 1\Capture day 1\Session 1\Male1.ASF
:FULLY-SPECIFIED
:DEGREES
27
root 1.85435 17.5855 -35.5101 4.16237 4.27706 -2.75993
lowerback 2.60218 -0.689635 -0.779369
upperback -1.2623 -0.864898 3.27689
thorax -2.69652 -0.386998 3.85974
lowerneck -17.1489 -3.30779 -2.36509
upperneck 12.6578 -4.25923 2.17147
head 6.76775 -1.97328 0.628196
rclavicle 2.95195e-014 -2.74323e-014
rhumerus -35.523 -11.7165 -75.9789
rradius 26.6138
rwrist -14.0827
rhand -17.1137 15.9588
rfingers 7.12502
rthumb 9.12567 -13.8238
lclavicle 2.95195e-014 -2.74323e-014
lhumerus -35.6323 7.4541 86.3502
lradius 31.98
lwrist -3.3245
lhand -6.52638 41.6421
lfingers 7.12502
lthumb 19.3263 70.7017
rfemur -7.39217 -1.26574 20.4161
rtibia 23.0328
rfoot -19.3241 -12.5651
rtoes 1.5171
lfemur -9.38186 -5.28334 -15.8375
ltibia 24.459
lfoot -20.1896 3.67535
ltoes -0.55583
28
root 1.83919 17.5399 -35.5058 3.99174 4.60658 -2.84629
lowerback 2.66231 -0.723875 -0.878142
upperback -1.20909 -0.914239 3.30868
thorax -2.67004 -0.410524 3.95141
lowerneck -17.2884 -3.34737 -2.39937
upperneck 12.9859 -4.3304 2.2975
head 6.90312 -1.9947 0.662391
rclavicle -1.12313e-014 -1.03368e-014
rhumerus -35.6647 -11.8567 -75.9601
rradius 26.9523
rwrist -14.2047
rhand -16.9249 16.0475
rfingers 7.12502
rthumb 9.30784 -13.727
lclavicle -1.12313e-014 -1.03368e-014
lhumerus -35.546 6.97094 86.6393
lradius 32.0455
lwrist -3.59574
lhand -6.68599 42.4596
lfingers 7.12502
lthumb 19.1728 71.5345
rfemur -7.21124 -1.26269 20.7078
rtibia 22.9675
rfoot -18.9293 -13.402
rtoes -0.193816
lfemur -9.31321 -5.26284 -15.6374
ltibia 24.5157
lfoot -20.2315 3.24676
ltoes -0.821431
29
root 1.84309 17.5874 -35.5042 4.06472 4.44851 -3.00042
lowerback 2.76588 -0.65319 -0.752683
upperback -1.32955 -0.809059 3.37935
thorax -2.86141 -0.355679 3.95268
lowerneck -17.153 -3.34222 -2.40834
upperneck 13.0727 -4.31305 2.2179
head 6.90643 -1.99486 0.641342
rclavicle 3.80176e-015 -5.1684e-015
rhumerus -35.7438 -11.8279 -75.8666
rradius 26.9977
rwrist -14.3093
rhand -16.6216 16.3147
rfingers 7.12502
rthumb 9.60046 -13.4466
lclavicle 3.80176e-015 -5.1684e-015
lhumerus -35.6136 6.6398 86.9213
lradius 32.1961
lwrist -3.24989
lhand -7.01497 41.8586
lfingers 7.12502
lthumb 18.8564 70.9646
rfemur -7.20908 -0.970924 20.7713
rtibia 22.9696
rfoot -19.5865 -12.8949
rtoes 2.84546
lfemur -9.31113 -5.18913 -15.4984
ltibia 24.4593
lfoot -20.0683 3.45151
ltoes -1.54229
30
root 1.8386 17.5746 -35.4974 3.9051 4.70779 -2.89159
lowerback 2.8524 -0.744568 -1.00603
upperback -1.26052 -0.940372 3.45281
thorax -2.82436 -0.417166 4.18004
lowerneck -17.3124 -3.35186 -2.62689
upperneck 13.2508 -4.28551 2.29362
head 6.99723 -1.98355 0.700626
rclavicle 7.35503e-015 -2.78299e-015
rhumerus -35.7098 -11.2384 -76.0149
rradius 27.5374
rwrist -14.9853
rhand -16.6767 15.7705
rfingers 7.12502
rthumb 9.5473 -13.9932
lclavicle 7.35503e-015 -2.78299e-015
lhumerus -35.4946 6.85529 87.0433
lradius 32.3086
lwrist -3.4157
lhand -6.64772 41.1667
lfingers 7.12502
lthumb 19.2096 70.2379
rfemur -7.0196 -1.13225 20.7196
rtibia 22.9252
rfoot -19.3152 -13.2572
rtoes 2.03556
lfemur -9.16794 -5.33555 -15.5881
ltibia 24.4692
lfoot -20.2726 3.192
ltoes -0.622692
31
root 1.84011 17.5754 -35.4995 4.01411 4.62118 -2.77442
lowerback 2.7941 -0.74444 -1.13373
upperback -1.30173 -0.945547 3.42993
thorax -2.83207 -0.417024 4.22837
lowerneck -17.0715 -3.30469 -2.47368
upperneck 12.9988 -4.22273 2.07839
head 6.8647 -1.96858 0.61833
rclavicle 2.69602e-014 -3.10104e-014
rhumerus -35.5419 -11.2478 -76.0207
rradius 27.3367
rwrist -14.9633
rhand -16.5747 16.6326
rfingers 7.12502
rthumb 9.64565 -13.1266
lclavicle 2.69602e-014 -3.10104e-014
lhumerus -35.5296 6.48134 87.3356
lradius 32.6856
lwrist -3.05713
lhand -7.14166 41.239
lfingers 7.12502
lthumb 18.7346 70.3569
rfemur -7.28733 -1.18349 20.5662
rtibia 23.1767
rfoot -19.2873 -13.1528
rtoes 0.590209
lfemur -9.06257 -5.19196 -15.7301
ltibia 24.1215
lfoot -20.0089 3.26572
ltoes -1.7799
32
root 1.83818 17.5854 -35.4952 3.9417 4.77552 -2.79393
lowerback 2.79926 -0.809856 -1.16414
upperback -1.23218 -1.03454 3.47633
thorax -2.75465 -0.462577 4.29734
lowerneck -17.2869 -3.28569 -2.50249
upperneck 13.1622 -4.18538 2.06232
head 6.95346 -1.951 0.617711
rclavicle 2.38542e-015 -1.23246e-014
rhumerus -35.343 -11.1966 -76.0571
rradius 27.4707
rwrist -14.7035
rhand -16.7403 16.0566
rfingers 7.12502
rthumb 9.4859 -13.7099
lclavicle 2.38542e-015 -1.23246e-014
lhumerus -35.3056 6.60788 87.4385
lradius 32.6689
lwrist -3.24241
lhand -6.73421 41.0138
lfingers 7.12502
lthumb 19.1264 70.0933
rfemur -7.07269 -1.21454 20.5794
rtibia 23.1996
rfoot -19.7636 -12.9325
rtoes 3.50923
lfemur -9.00444 -5.46999 -15.6969
ltibia 24.1126
lfoot -20.1686 3.18939
ltoes 0.110586
33
root 1.83858 17.5882 -35.4951 4.02779 4.70236 -2.64496
lowerback 2.80815 -0.808918 -1.27536
upperback -1.30961 -1.0382 3.39705
thorax -2.83878 -0.460852 4.27944
lowerneck -17.0273 -3.32391 -2.42581
upperneck 12.9844 -4.24164 1.9623
head 6.84925 -1.98621 0.571742
rclavicle -4.00054e-015 3.29983e-014
rhumerus -35.1726 -11.0027 -76.2004
rradius 27.2731
rwrist -14.9471
rhand -15.6365 17.6715
rfingers 7.12502
rthumb 10.5508 -12.0437
lclavicle -4.00054e-015 3.29983e-014
lhumerus -35.4033 6.38738 87.5094
lradius 32.9913
lwrist -3.01819
lhand -6.58985 42.0186
lfingers 7.12502
lthumb 19.2653 71.0843
rfemur -7.19887 -1.28039 20.4038
rtibia 23.2913
rfoot -19.6935 -12.7874
rtoes 3.43392
lfemur -9.0103 -5.40843 -15.8717
ltibia 24.0181
lfoot -20.1219 3.43127
ltoes -2.32833
34
root 1.83871 17.5707 -35.4969 3.99853 4.70536 -2.70228
lowerback 2.84306 -0.821462 -1.22924
upperback -1.2967 -1.05251 3.42224
thorax -2.84429 -0.468699 4.28081
lowerneck -17.0297 -3.21355 -2.54534
upperneck 12.9521 -4.10177 2.19762
head 6.84402 -1.90388 0.682631
rclavicle -4.64659e-015 2.26615e-014
rhumerus -35.2411 -10.9362 -76.2361
rradius 27.7206
rwrist -14.8176
rhand -16.8175 16.3436
rfingers 7.12502
rthumb 9.41142 -13.4263
lclavicle -4.64659e-015 2.26615e-014
lhumerus -35.4138 6.03962 87.7646
lradius 33.2837
lwrist -2.61758
lhand -7.06976 42.2154
lfingers 7.12502
lthumb 18.8037 71.3265
rfemur -7.30253 -1.3524 20.4804
rtibia 23.3247
rfoot -19.4643 -13.0323
rtoes 1.57668
lfemur -9.01212 -5.42941 -15.8056
ltibia 24.0247
lfoot -20.079 3.23621
ltoes -0.441186
35
root 1.83945 17.5872 -35.4951 4.06004 4.68732 -2.64266
lowerback 2.84375 -0.82426 -1.20834
upperback -1.33653 -1.0568 3.33953
thorax -2.88716 -0.470892 4.1836
lowerneck -17.1024 -3.22716 -2.44178
upperneck 13.0286 -4.12528 2.07826
head 6.87666 -1.91978 0.623265
rclavicle 6.53505e-015 -1.03368e-014
rhumerus -35.1847 -10.7265 -76.4801
rradius 27.8618
rwrist -14.9892
rhand -16.9508 16.0275
rfingers 7.12502
rthumb 9.28282 -13.7481
lclavicle 6.53505e-015 -1.03368e-014
lhumerus -35.3125 5.6885 87.8625
lradius 33.4021
lwrist -2.21007
lhand -7.12041 42.6911
lfingers 7.12502
lthumb 18.755 71.807
rfemur -7.27757 -1.37933 20.3966
rtibia 23.3587
rfoot -19.6432 -12.7226
rtoes 3.02528
lfemur -9.01138 -5.46216 -15.8774
ltibia 23.9853
lfoot -19.8856 3.40283
ltoes -1.49426
